<svg xmlns="http://www.w3.org/2000/svg" width="24" height="24" version="1"><rect width="16" height="20" x="-20" y="2" fill="#4f4f4f" rx="1" ry="1" transform="scale(-1,1)"/><circle style="opacity:.4" cx="-14" cy="12" r="7" transform="rotate(-90)"/><circle cx="-14.5" cy="-12" r="5" opacity=".2" transform="matrix(0,-1,-1,0,0,0)"/><circle cx="-14" cy="-12" r="5" fill="#fec006" transform="matrix(0,-1,-1,0,0,0)"/><circle style="fill:#3f3f3f" cx="-14" cy="-12" r="2" transform="matrix(0,-1,-1,0,0,0)"/><circle style="opacity:.4" cx="5" cy="-7.5" r="1" transform="rotate(90)"/><circle style="opacity:.4" cx="5" cy="-16.5" r="1" transform="rotate(90)"/><path d="m4 21v0.5c0 0.554 0.446 1 1 1h14c0.554 0 1-0.446 1-1v-0.5c0 0.554-0.446 1-1 1h-14c-0.554 0-1-0.446-1-1z" opacity=".2"/><path fill="#fff" d="m5 2c-0.554 0-1 0.446-1 1v0.5c0-0.554 0.446-1 1-1h14c0.554 0 1 0.446 1 1v-0.5c0-0.554-0.446-1-1-1h-14z" opacity=".1"/></svg>