<svg xmlns="http://www.w3.org/2000/svg" width="24" height="24" version="1"><g transform="translate(1,1)"><path fill="#4f4f4f" d="m21 14v-6.002c0-0.554-0.446-1-1-1h-18c-0.554 0-1 0.446-1 1v6.002c0 0.554 0.446 1 1 1h18c0.554 0 1-0.446 1-1z"/><path fill="#fff" d="m2 6.998c-0.554 0-1 0.446-1 1v0.5c0-0.554 0.446-1 1-1h18c0.554 0 1 0.446 1 1v-0.5c0-0.554-0.446-1-1-1h-18z" opacity=".1"/><rect width="6" height="12" x="-8" y="-17" fill="#ccc" rx="0" ry="0" transform="matrix(0,-1,-1,0,0,0)"/><rect width="14" height="2" x="4" y="12" opacity=".1"/><rect width="8" height="12" x="-21" y="-17" fill="#ccc" rx="0" ry="0" transform="matrix(0,-1,-1,0,0,0)"/><path d="m1 14.002v0.5c0 0.554 0.446 1 1 1h3v-0.5h-3c-0.554 0-1-0.446-1-1zm20 0c0 0.554-0.446 1-1 1h-3v0.5h3c0.554 0 1-0.446 1-1zm-16 6.998v0.5h12v-0.5z" opacity=".2"/><rect width="1" height="1" x="3" y="9" fill="#f34235" rx="0" ry="0"/><path fill="#fff" d="m5 2v0.5h12v-0.5h-12z" opacity=".2"/></g></svg>