<svg xmlns="http://www.w3.org/2000/svg" width="24" height="24" version="1"><g transform="translate(1,1)"><rect width="20" height="20" x="-21" y="-21" fill="#c28f42" rx="1" ry="1" transform="matrix(0,-1,-1,0,0,0)"/><path fill="#fff" d="m2 1c-0.554 0-1 0.446-1 1v0.5c0-0.554 0.446-1 1-1h18c0.554 0 1 0.446 1 1v-0.5c0-0.554-0.446-1-1-1h-18z" opacity=".2"/><path d="m2 21.5c-0.554 0-1-0.446-1-1v-0.5c0 0.554 0.446 1 1 1h18c0.554 0 1-0.446 1-1v0.5c0 0.554-0.446 1-1 1h-18z" opacity=".2"/><g opacity=".2"><path d="m15.462 11.383h15.462v4.1392h-11.596v6.2089h9.6636v4.1392h-9.6636v12.418h-3.8655z" transform="matrix(.5174 0 0 .48318 -1 -.00004416)"/></g><g fill="#fff"><path d="m15.462 11.383h15.462v4.1392h-11.596v6.2089h9.6636v4.1392h-9.6636v12.418h-3.8655z" transform="matrix(.5174 0 0 .48318 -1 -.50004)"/></g></g></svg>